<?xml version="1.0" encoding="utf-8"?>
<!-- Generator: Adobe Illustrator 25.4.1, SVG Export Plug-In . SVG Version: 6.00 Build 0)  -->
<svg version="1.1" id="Capa_1" xmlns="http://www.w3.org/2000/svg" xmlns:xlink="http://www.w3.org/1999/xlink" x="0px" y="0px"
	 viewBox="0 0 800 800" style="enable-background:new 0 0 800 800;" xml:space="preserve">
<style type="text/css">
	.st0{fill:#98B0FF;}
	.st1{fill:#E7E9FF;}
</style>
<path class="st0" d="M787,602H11c-6.6,0-12-5.4-12-12V214c0-6.6,5.4-12,12-12h776c6.6,0,12,5.4,12,12v376
	C799,596.6,793.6,602,787,602z"/>
<path class="st1" d="M787,597H11c-6.6,0-12-5.4-12-12V209c0-6.6,5.4-12,12-12h776c6.6,0,12,5.4,12,12v376
	C799,591.6,793.6,597,787,597z"/>
</svg>
